<svg xmlns="http://www.w3.org/2000/svg" viewBox="0 0 20 20"><defs><style>.cls-1{fill:none;}</style></defs><g id="Calque_2" data-name="Calque 2"><g id="Calque_1-2" data-name="Calque 1"><path d="M10,14.58c.16,0,.3,0,.45,0v2h-.9v-2c.15,0,.29,0,.45,0Zm0-9.16c.16,0,.3,0,.45,0v-2h-.9v2c.15,0,.29,0,.45,0Zm-2.89,1L5.68,5,5,5.68,6.47,7.11A6.44,6.44,0,0,1,7.11,6.47Zm5.78,7.06L14.32,15l.64-.64-1.43-1.43A6.44,6.44,0,0,1,12.89,13.53Zm1.65-4c0,.15,0,.29,0,.45s0,.3,0,.45h2v-.9ZM5.42,10c0-.16,0-.3,0-.45h-2v.9h2C5.45,10.3,5.42,10.16,5.42,10ZM15,5.68,14.32,5,12.89,6.47a6.44,6.44,0,0,1,.64.64ZM5,14.32l.64.64,1.43-1.43a6.44,6.44,0,0,1-.64-.64ZM13.26,10a3.26,3.26,0,0,0,0-.45,3.18,3.18,0,0,0-.62-1.5A3.23,3.23,0,0,0,12,7.41a3.18,3.18,0,0,0-1.5-.62,3.26,3.26,0,0,0-.45,0,3.26,3.26,0,0,0-.45,0,3.18,3.18,0,0,0-1.5.62,3.23,3.23,0,0,0-.64.64,3.18,3.18,0,0,0-.62,1.5,3.26,3.26,0,0,0,0,.45,3.26,3.26,0,0,0,0,.45A3.18,3.18,0,0,0,7.41,12a3.23,3.23,0,0,0,.64.64,3.18,3.18,0,0,0,1.5.62,3.26,3.26,0,0,0,.45,0,3.26,3.26,0,0,0,.45,0,3.18,3.18,0,0,0,1.5-.62,3.23,3.23,0,0,0,.64-.64,3.18,3.18,0,0,0,.62-1.5A3.26,3.26,0,0,0,13.26,10Z"/><rect class="cls-1" width="20" height="20"/></g></g></svg>