<svg enable-background="new 0 0 900 900" viewBox="0 0 900 900" xmlns="http://www.w3.org/2000/svg"><path d="m567.5 417.7h-22.7v-40.5c0-52.5-42.7-95.2-95.2-95.2s-95.2 42.7-95.2 95.2v40.5h-21.8c-7.1 0-12.9 5.8-12.9 12.9v169.6c0 7.1 5.8 12.9 12.9 12.9h234.9c7.1 0 12.9-5.8 12.9-12.9v-169.6c-.1-7.1-5.8-12.9-12.9-12.9zm-203.1-40.5c0-47 38.2-85.2 85.2-85.2s85.2 38.2 85.2 85.2v40.5h-170.4zm98.1 123.4-1.8 1.2v45.2c0 5.9-4.8 10.7-10.7 10.7s-10.7-4.8-10.7-10.7v-45.3l-1.8-1.2c-10.2-6.9-12.9-20.7-6-30.9 4-6 10.6-9.6 17.8-9.8h.7c12.3 0 22.3 10 22.3 22.3 0 7.4-3.7 14.3-9.8 18.5z" fill="#bfbfbf"/></svg>