<?xml version="1.0" encoding="utf-8"?>
<!-- Generator: Adobe Illustrator 24.1.0, SVG Export Plug-In . SVG Version: 6.00 Build 0)  -->
<svg version="1.1" id="Calque_1" xmlns="http://www.w3.org/2000/svg" xmlns:xlink="http://www.w3.org/1999/xlink" x="0px" y="0px"
	 viewBox="0 0 900 900" style="enable-background:new 0 0 900 900;" xml:space="preserve">
<style type="text/css">
	.st0{fill:none;stroke:#000000;stroke-width:4;stroke-miterlimit:10;}
</style>
<path d="M567.5,421.7c4.9,0,8.9,4,8.9,8.9v169.6c0,4.9-4,8.9-8.9,8.9H332.6c-4.9,0-8.9-4-8.9-8.9V430.6c0-4.9,4-8.9,8.9-8.9H567.5z
	 M567.5,417.7H332.6c-7.1,0-12.9,5.8-12.9,12.9v169.6c0,7.1,5.8,12.9,12.9,12.9h234.9c7.1,0,12.9-5.8,12.9-12.9V430.6
	C580.3,423.5,574.6,417.7,567.5,417.7z"/>
<path class="st0" d="M539.8,418v-40.8c0-49.8-40.4-90.2-90.2-90.2s-90.2,40.4-90.2,90.2V418"/>
<path d="M450,459.8c12.3,0,22.3,10,22.3,22.3c0,7.4-3.7,14.3-9.8,18.5l-1.8,1.2V547c0,5.9-4.8,10.7-10.7,10.7
	c-5.9,0-10.7-4.8-10.7-10.7v-45.3l-1.8-1.2c-10.2-6.9-12.9-20.7-6-30.9c4-6,10.6-9.6,17.8-9.8L450,459.8 M450,455.8h-0.8
	c-14.5,0.4-25.9,12.6-25.4,27.1c0.3,8.4,4.5,16.2,11.5,20.9V547c0,8.1,6.6,14.7,14.7,14.7c8.1,0,14.7-6.6,14.7-14.7v-43.2
	c12-8.2,15.1-24.5,7-36.5C466.8,460.2,458.7,455.9,450,455.8L450,455.8z"/>
</svg>
