<svg enable-background="new 0 0 900 900" viewBox="0 0 900 900" xmlns="http://www.w3.org/2000/svg"><g fill="#bfbfbf"><path d="m283 603.4v.8c0 7.1 5.7 12.8 12.8 12.8h308.2c7.1 0 12.8-5.7 12.8-12.8v-.8z"/><path d="m621.2 585.1h-2.2-2.2-333.8-2.2-2.2-1.7c-2.7 0-5.3-.6-7.7-1.6v1.2c0 6.1 3.9 11.2 9.3 13.1.7.2 1.5.4 2.2.6.7.1 1.5.2 2.2.2h333.7c.8 0 1.5-.1 2.2-.2.8-.1 1.5-.3 2.2-.6 5.4-1.9 9.3-7 9.3-13.1v-1.2c-2.4 1-4.9 1.6-7.7 1.6z"/><path d="m622.9 319.3h-346c-7.9 0-14.3 6.4-14.3 14.3v232.1c0 2.6.7 4.9 1.8 7 .7 1.2 1.5 2.2 2.4 3.2.7.7 1.5 1.4 2.4 1.9 2.2 1.4 4.8 2.2 7.7 2.2h1.7 2.2 2.2 333.8 2.2 2.2 1.7c2.8 0 5.5-.8 7.7-2.2.9-.6 1.7-1.2 2.4-1.9.9-.9 1.8-2 2.4-3.2 1.2-2.1 1.8-4.5 1.8-7v-232.1c0-7.9-6.4-14.3-14.3-14.3zm-168.7 194.4h-10.6v-20.9h10.6zm12.6-58c-9.6 8.1-12.5 14-12.5 22.2v1h-10.6v-2c0-7.8 1.8-15.8 16.2-28 11.7-9.9 13.9-16.4 13.9-24.5 0-9.8-6.6-20.9-22.9-20.9-14.8 0-22.8 8.2-25.2 22h-10.4c.9-9.1 7.3-31.2 35.9-31.2 24.1 0 33.5 16.3 33.5 30-.2 13-4.8 20.2-17.9 31.4z"/></g></svg>