<?xml version="1.0" encoding="utf-8"?>
<!-- Generator: Adobe Illustrator 24.1.0, SVG Export Plug-In . SVG Version: 6.00 Build 0)  -->
<svg version="1.1" id="Calque_1" xmlns="http://www.w3.org/2000/svg" xmlns:xlink="http://www.w3.org/1999/xlink" x="0px" y="0px"
	 viewBox="0 0 900 900" style="enable-background:new 0 0 900 900;" xml:space="preserve">
<style type="text/css">
	.st0{fill:#BFBFBF;}
</style>
<path class="st0" d="M283,603.4C283,603.4,283,603.4,283,603.4l0,0.8c0,7.1,5.7,12.8,12.8,12.8H604c7.1,0,12.8-5.7,12.8-12.8v-0.8
	c0,0,0,0,0,0H283z"/>
<path class="st0" d="M621.2,585.1H619h-2.2H283h-2.2h-2.2h-1.7c-2.7,0-5.3-0.6-7.7-1.6v1.2c0,6.1,3.9,11.2,9.3,13.1
	c0.7,0.2,1.5,0.4,2.2,0.6c0.7,0.1,1.5,0.2,2.2,0.2c0,0,0,0,0,0h333.7c0,0,0,0,0,0c0.8,0,1.5-0.1,2.2-0.2c0.8-0.1,1.5-0.3,2.2-0.6
	c5.4-1.9,9.3-7,9.3-13.1v-1.2c-2.4,1-4.9,1.6-7.7,1.6H621.2z"/>
<path class="st0" d="M622.9,319.3h-346c-7.9,0-14.3,6.4-14.3,14.3v232.1c0,2.6,0.7,4.9,1.8,7c0.7,1.2,1.5,2.2,2.4,3.2
	c0.7,0.7,1.5,1.4,2.4,1.9c2.2,1.4,4.8,2.2,7.7,2.2h1.7h2.2h2.2h333.8h2.2h2.2h1.7c2.8,0,5.5-0.8,7.7-2.2c0.9-0.6,1.7-1.2,2.4-1.9
	c0.9-0.9,1.8-2,2.4-3.2c1.2-2.1,1.8-4.5,1.8-7V333.6C637.2,325.7,630.8,319.3,622.9,319.3z M454.2,513.7h-10.6v-20.9h10.6V513.7z
	 M466.8,455.7c-9.6,8.1-12.5,14-12.5,22.2v1h-10.6v-2c0-7.8,1.8-15.8,16.2-28c11.7-9.9,13.9-16.4,13.9-24.5
	c0-9.8-6.6-20.9-22.9-20.9c-14.8,0-22.8,8.2-25.2,22h-10.4c0.9-9.1,7.3-31.2,35.9-31.2c24.1,0,33.5,16.3,33.5,30
	C484.5,437.3,479.9,444.5,466.8,455.7z"/>
</svg>
