<?xml version="1.0" encoding="utf-8"?>
<!-- Generator: Adobe Illustrator 24.1.0, SVG Export Plug-In . SVG Version: 6.00 Build 0)  -->
<svg version="1.1" id="Calque_1" xmlns="http://www.w3.org/2000/svg" xmlns:xlink="http://www.w3.org/1999/xlink" x="0px" y="0px"
	 viewBox="0 0 900 900" style="enable-background:new 0 0 900 900;" xml:space="preserve">
<g>
	<path d="M446.5,482.7v-0.4c0-9.6,1.3-19.7,18.9-35.6c17-15.3,18.7-26,18.7-36.3c0-15.1-9.6-31.4-32.3-31.4
		c-19.3,0-32.5,10.3-36.1,31.9h-4.2c1.7-13,9.6-35.6,40.3-35.6c24.7,0,36.7,17.4,36.7,34.8c0,16.1-5.2,25.8-21.2,40.5
		c-11.9,10.9-16.8,19.5-16.8,31.2v1H446.5z M446.5,524.8v-22.4h4.2v22.4H446.5z"/>
</g>
<path d="M597.4,609.3c-1.4,5.3-6.9,8.4-12.1,7l-132.8-35.1l-9.4-1h-10l151.2,39.9c7.4,2,15-2.4,17-9.9l3.4-12.9l-4-0.4L597.4,609.3z
	"/>
<path d="M250.3,527.8c-5.3-1.4-8.4-6.9-7-12.1l19.3-72.9l0.3-2.7v-14.4l-23.5,89c-2,7.4,2.4,15,9.9,17l3.8,1l0.4-4L250.3,527.8z"/>
<path d="M650.8,368.3l-3.8-1l-0.4,4l3.2,0.9c5.2,1.4,8.4,6.8,7,12.1l-19.4,73.5l-0.2,2.1v14.4l23.5-89
	C662.7,377.9,658.3,370.3,650.8,368.3z"/>
<path d="M302.7,290.7c1.4-5.2,6.8-8.4,12.1-7l132.7,35.1l9.4,1h10l-151.2-39.9c-7.4-2-15,2.4-17,9.9l-3.4,12.9l4.1,0.4L302.7,290.7z
	"/>
<polygon points="262.8,450 265.9,450 265.9,450 262.8,450 262.8,441.7 262.5,442.8 253.4,528.6 257.4,529.7 262.8,479 "/>
<path d="M255.7,546.4l1.3-12.7l-4-1.1l-1.4,13.3c-0.8,7.3,4.2,13.8,11.2,15.1V557C258.2,555.7,255.1,551.2,255.7,546.4z"/>
<path d="M620.4,580.2l-0.5,4.8c-0.6,5.5-5.5,9.4-10.9,8.8l-3.3-0.4l-1,3.9l3.9,0.4c7.7,0.8,14.5-4.7,15.3-12.4l0.6-5.2
	c-0.4,0-0.8,0.1-1.2,0.1H620.4z"/>
<polygon points="448.7,580.2 452.5,581.2 600.7,596.9 601.7,593 481.1,580.2 "/>
<polygon points="262.8,440.1 262.5,442.8 262.8,441.7 "/>
<polygon points="443.1,580.2 452.5,581.2 448.7,580.2 "/>
<polygon points="601.7,593 600.7,596.9 604.7,597.4 605.7,593.5 "/>
<polygon points="257.4,529.7 253.4,528.6 253,532.7 257,533.7 "/>
<polygon points="451.3,319.8 447.5,318.8 299.4,303.1 298.4,307 418.9,319.8 "/>
<path d="M644.4,353.6l-1.3,12.7l3.9,1l1.4-13.3c0.8-7.3-4.2-13.8-11.2-15.1v4.1C641.8,344.3,645,348.7,644.4,353.6z"/>
<path d="M279.7,319.8l0.5-4.7c0.6-5.4,5.4-9.4,10.9-8.8l3.2,0.3l1-3.9l-3.9-0.4c-7.7-0.8-14.5,4.7-15.3,12.4l-0.6,5.2
	c0.4,0,0.8-0.1,1.2-0.1H279.7z"/>
<polygon points="637.2,421.9 637.2,450 637.2,458.7 637.4,457.8 646.6,371.4 642.7,370.3 "/>
<polygon points="298.4,307 299.4,303.1 295.3,302.6 294.3,306.5 "/>
<polygon points="642.7,370.3 646.6,371.4 647,367.3 643.1,366.3 "/>
<polygon points="637.2,459.9 637.4,457.8 637.2,458.7 "/>
<polygon points="456.9,319.8 447.5,318.8 451.3,319.8 "/>
<polygon points="443.3,576.2 481.1,580.2 605.1,580.2 606.1,576.2 "/>
<polygon points="266.9,450 265.9,450 262.8,479 262.8,531.1 266.9,532.2 "/>
<polygon points="633.2,459.7 634.2,450 633.2,450 "/>
<path d="M262.8,535.3V557c0.5,0.2,1.1,0.3,1.7,0.3l2.4,0.3v-21.2L262.8,535.3z"/>
<polygon points="609.2,580.2 620.4,580.2 620.8,576.2 610.3,576.2 "/>
<path d="M405.4,576.2H276.8c-5.5,0-9.9-4.5-9.9-9.9v-4.8l-3-0.3c-0.4,0-0.8-0.1-1.1-0.2v5.3c0,7.7,6.2,13.9,13.9,13.9h156.4
	l-6.7-1.8L405.4,576.2z"/>
<polygon points="633.2,469.4 634.3,469.5 634.3,469.5 633.2,469.4 "/>
<path d="M633.2,497.6l0,68.7c0,5-3.6,9-8.3,9.8l-0.4,4.1c7.2-0.6,12.7-6.5,12.7-13.8l0-92l-2.6,9.7L633.2,497.6z"/>
<polygon points="262.8,531.1 262.8,535.3 266.9,536.3 266.9,532.2 "/>
<polygon points="426.4,578.5 433.1,580.2 443.1,580.2 "/>
<polygon points="605.1,580.2 609.2,580.2 610.3,576.2 606.1,576.2 "/>
<polygon points="636.2,469.7 634.3,469.5 634.3,469.5 636.2,469.7 634.6,484 637.2,474.3 637.2,459.9 "/>
<polygon points="433.6,576.2 448.7,580.2 481.1,580.2 443.3,576.2 "/>
<polygon points="633.2,473.8 634.3,469.5 633.2,469.4 "/>
<polygon points="633.2,497.6 634.6,484 633.2,489.5 "/>
<polygon points="405.4,576.2 426.4,578.5 417.9,576.2 "/>
<path d="M266.9,561.6v-4l-2.4-0.3c-0.6-0.1-1.1-0.2-1.7-0.3v4.1c0.4,0.1,0.8,0.1,1.1,0.2L266.9,561.6z"/>
<polygon points="262.8,450 262.8,479 265.9,450 "/>
<path d="M623.3,576.2h-2.5l-0.4,4h2.9c0.4,0,0.8,0,1.2-0.1l0.4-4.1C624.4,576.2,623.8,576.2,623.3,576.2z"/>
<polygon points="433.6,576.2 417.9,576.2 426.4,578.5 443.1,580.2 448.7,580.2 "/>
<polygon points="633.2,489.5 634.6,484 636.2,469.7 634.3,469.5 633.2,473.8 "/>
<polygon points="637.2,450 634.2,450 633.2,459.7 633.2,469.4 634.3,469.5 637.2,458.7 "/>
<polygon points="634.3,469.5 636.2,469.7 637.2,459.9 637.2,458.7 "/>
<polygon points="456.7,323.8 418.9,319.8 295,319.8 294,323.8 "/>
<path d="M266.9,401.4l0-67.8c0-4.8,3.5-8.9,8.2-9.7l0.4-4.1c-7.2,0.6-12.7,6.5-12.7,13.8l0,92l2.6-9.7L266.9,401.4z"/>
<path d="M494.6,323.8h128.7c5.4,0,9.9,4.4,9.9,9.9v4.8l2.9,0.3c0.4,0,0.8,0.1,1.1,0.2v-5.3c0-7.7-6.2-13.9-13.9-13.9H466.9l6.7,1.8
	L494.6,323.8z"/>
<polygon points="290.8,319.8 279.7,319.8 279.3,323.8 289.7,323.8 "/>
<polygon points="266.9,440.3 265.9,450 266.9,450 "/>
<path d="M637.2,364.7V343c-0.5-0.1-1-0.2-1.6-0.3l-2.4-0.3v21.2L637.2,364.7z"/>
<polygon points="633.2,367.8 633.2,450 634.2,450 637.2,421.9 637.2,368.9 "/>
<polygon points="266.9,430.6 265.8,430.5 265.8,430.5 266.9,430.6 "/>
<polygon points="263.8,430.3 265.8,430.5 265.8,430.5 263.8,430.3 265.4,416 262.8,425.7 262.8,440.1 "/>
<polygon points="637.2,368.9 637.2,364.7 633.2,363.7 633.2,367.8 "/>
<polygon points="295,319.8 290.8,319.8 289.7,323.8 294,323.8 "/>
<polygon points="473.6,321.5 466.9,319.8 456.9,319.8 "/>
<polygon points="262.8,450 265.9,450 266.9,440.3 266.9,430.6 265.8,430.5 262.8,441.7 "/>
<polygon points="265.8,430.5 263.8,430.3 262.8,440.1 262.8,441.7 "/>
<polygon points="266.9,401.4 265.4,416 266.9,410.2 "/>
<polygon points="494.6,323.8 473.6,321.5 482.1,323.8 "/>
<path d="M633.2,338.4v4l2.4,0.3c0.5,0.1,1.1,0.2,1.6,0.3v-4.1c-0.4-0.1-0.8-0.1-1.1-0.2L633.2,338.4z"/>
<path d="M276.8,323.8h2.5l0.4-4h-3c-0.4,0-0.8,0-1.2,0.1l-0.4,4.1C275.7,323.8,276.2,323.8,276.8,323.8z"/>
<polygon points="637.2,450 637.2,421.9 634.2,450 "/>
<polygon points="266.9,426.2 265.8,430.5 266.9,430.6 "/>
<polygon points="466.4,323.8 451.3,319.8 418.9,319.8 456.7,323.8 "/>
<polygon points="266.9,410.2 265.4,416 263.8,430.3 265.8,430.5 266.9,426.2 "/>
<polygon points="466.4,323.8 482.1,323.8 473.6,321.5 456.9,319.8 451.3,319.8 "/>
</svg>
