<?xml version="1.0" encoding="utf-8"?>
<!-- Generator: Adobe Illustrator 24.1.0, SVG Export Plug-In . SVG Version: 6.00 Build 0)  -->
<svg version="1.1" id="Calque_1" xmlns="http://www.w3.org/2000/svg" xmlns:xlink="http://www.w3.org/1999/xlink" x="0px" y="0px"
	 viewBox="0 0 900 900" style="enable-background:new 0 0 900 900;" xml:space="preserve">
<style type="text/css">
	.st0{fill:none;stroke:#000000;stroke-width:4;stroke-miterlimit:10;}
</style>
<path d="M472.8,242.5L576.3,346v253c0,5.5-4.5,9.9-9.9,9.9H333.6c-5.5,0-9.9-4.5-9.9-9.9V252.5c0-5.5,4.5-9.9,9.9-9.9h139.2
	 M474.4,238.5H333.6c-7.7,0-13.9,6.2-13.9,13.9V599c0,7.7,6.2,13.9,13.9,13.9h232.7c7.7,0,13.9-6.2,13.9-13.9V344.4L474.4,238.5z"/>
<path d="M478.4,248.2l92.2,92.2h-82.3c-5.5,0-9.9-4.5-9.9-9.9V248.2z M474.4,238.5v91.9c0,7.7,6.2,13.9,13.9,13.9h91.9L474.4,238.5z
	"/>
<g>
	<path class="st0" d="M532.5,386.2h-165"/>
	<path class="st0" d="M532.5,430.1h-165"/>
	<path class="st0" d="M532.5,342.4h-165"/>
	<path class="st0" d="M474.4,298.6H367.5"/>
	<path class="st0" d="M532.5,473.9h-165"/>
	<path class="st0" d="M532.5,517.7h-165"/>
	<path class="st0" d="M474.4,561.6H367.5"/>
</g>
</svg>
